<?xml version="1.0" encoding="UTF-8" standalone="no"?><!DOCTYPE svg PUBLIC "-//W3C//DTD SVG 1.1//EN" "http://www.w3.org/Graphics/SVG/1.1/DTD/svg11.dtd"><svg width="100%" height="100%" viewBox="0 0 1321 263" version="1.1" xmlns="http://www.w3.org/2000/svg" xmlns:xlink="http://www.w3.org/1999/xlink" xml:space="preserve" xmlns:serif="http://www.serif.com/" style="fill-rule:evenodd;clip-rule:evenodd;stroke-linejoin:round;stroke-miterlimit:2;"><rect x="2.244" y="0" width="504.922" height="132.875" style="fill:#fff;fill-rule:nonzero;"/><path d="M179.544,114.828l-66.697,-70.265l0,66.596l-11.056,0l0,-93.625l66.703,70.279l0,-66.013l11.05,0l0,93.028Zm-98.275,-82.844l-31.944,0l0,25.113l30.878,0l0,10.181l-30.878,0l0,43.881l-11.047,0l0,-89.359l42.991,0l0,10.184Zm133.134,67.297c10.319,9.038 22.509,16.391 36.7,16.391c9.838,0 20.313,-4.828 20.313,-15.981c0,-11.578 -16.457,-15.569 -25.45,-18.094c-25.869,-7.353 -42.928,-14.091 -42.928,-44.809l-0.004,-0.713c0,-14.659 5.079,-26.987 13.647,-36.072l-214.437,0l0,132.869l195.062,0l17.097,-33.591Z" style="fill:#164895;fill-rule:nonzero;"/><path d="M482.603,31.984l-31.947,0l0,25.113l30.881,0l0,10.181l-30.881,0l0,43.881l-11.047,0l0,-89.359l42.994,0l0,10.184Zm-68.544,82.847l-66.693,-70.272l0,66.6l-11.044,0l0,-93.625l66.687,70.279l0,-66.013l11.05,0l0,93.031Zm-108.696,-114.831l-14.313,28.575c-7.575,-6.306 -16.9,-10.516 -27.128,-10.516c-7.684,0 -17.956,4.416 -17.956,13.266c0,9.25 11.328,12.825 18.6,15.138l10.643,3.162c22.088,6.513 39.413,17.944 39.413,43.603c0,12.475 -4.656,28.641 -12.491,39.647l205.035,0l0,-132.875l-201.803,0Z" style="fill:#164895;fill-rule:nonzero;"/><path d="M20.122,262.153c-7.163,0 -14.05,-1.815 -20.122,-5.531l3.444,-6.706c5.437,3.353 10.606,5.168 16.859,5.168c8.159,0 13.506,-4.171 13.506,-10.878c0,-5.075 -3.353,-8.612 -10.331,-10.606l-6.528,-1.903c-9.428,-2.719 -14.775,-7.25 -14.775,-16.134c0,-10.788 8.338,-18.132 20.669,-18.132c6.887,0 13.597,1.997 19.125,5.894l-3.897,6.166c-5.803,-3.538 -9.7,-4.897 -14.869,-4.897c-6.978,0 -11.328,3.625 -11.328,9.428c0,4.441 2.537,6.978 9.244,8.975l7.343,2.175c8.338,2.444 15.229,7.887 15.229,17.584c0,8.7 -7.163,19.397 -23.569,19.397Z" style="fill:#164895;fill-rule:nonzero;"/><path d="M96.978,261.338l-8.069,0l-6.618,-24.747c-0.816,-3.172 -2.81,-10.694 -2.81,-10.694l-0.272,0c0,0 -1.812,7.703 -2.447,10.153l-6.796,25.288l-7.978,0l-12.419,-45.413l8.431,-1.359l5.8,25.472c0.997,4.531 2.356,11.146 2.356,11.146l0.272,0c0,0 0.997,-6.434 2.084,-10.331l6.891,-25.29l8.61,0l6.346,24.565c1.269,4.894 2.538,11.056 2.538,11.056l0.362,0c0,0 1.45,-7.793 2.085,-10.784l5.618,-24.837l8.704,0l-12.688,45.775Z" style="fill:#164895;fill-rule:nonzero;"/><path d="M117.809,260.975l0,-45.141l8.613,-1.359l0,46.5l-8.613,0Zm4.26,-53.391c-3.263,0 -5.8,-2.718 -5.8,-5.981c0,-3.353 2.628,-6.072 5.89,-6.072c3.266,0 5.985,2.628 5.985,6.072c0,3.263 -2.719,5.981 -6.075,5.981Z" style="fill:#164895;fill-rule:nonzero;"/><path d="M154.241,262.244c-5.528,0 -11.691,-1.722 -16.95,-4.803l2.993,-5.985c4.35,2.447 9.516,4.535 14.594,4.535c4.984,0 8.428,-2.9 8.428,-7.341c0,-3.9 -2.356,-6.166 -7.612,-7.162l-5.532,-1.088c-7.159,-1.453 -11.059,-5.894 -11.059,-12.6c0,-8.341 6.619,-14.141 16.409,-14.141c5.529,0 10.604,1.541 14.322,3.716l-2.809,5.894c-4.172,-2.085 -7.525,-3.266 -11.15,-3.266c-4.806,0 -7.888,2.722 -7.888,6.8c0,3.263 1.632,5.078 6.438,6.163l5.891,1.362c8.34,1.9 11.784,6.706 11.784,12.688c0,9.062 -7.253,15.228 -17.859,15.228Z" style="fill:#164895;fill-rule:nonzero;"/><path d="M196.291,262.244c-5.529,0 -11.691,-1.722 -16.95,-4.803l2.993,-5.985c4.35,2.447 9.516,4.535 14.594,4.535c4.984,0 8.428,-2.9 8.428,-7.341c0,-3.9 -2.356,-6.166 -7.612,-7.162l-5.532,-1.088c-7.159,-1.453 -11.059,-5.894 -11.059,-12.6c0,-8.341 6.619,-14.141 16.41,-14.141c5.528,0 10.603,1.541 14.321,3.716l-2.809,5.894c-4.172,-2.085 -7.525,-3.266 -11.15,-3.266c-4.806,0 -7.887,2.722 -7.887,6.8c0,3.263 1.631,5.078 6.437,6.163l5.891,1.362c8.34,1.9 11.784,6.706 11.784,12.688c0,9.062 -7.25,15.228 -17.859,15.228Z" style="fill:#164895;fill-rule:nonzero;"/><path d="M277.675,260.975l-16.406,-33.175c-3.172,-6.437 -6.435,-13.506 -7.613,-17.134l-0.543,0.093c0.453,5.347 0.634,11.604 0.724,17.404l0.363,32.812l-8.794,0l0,-62.453l10.153,0l17.403,34.444c2.629,5.168 5.713,13.237 6.166,14.956l0.544,-0.178c-0.181,-1.813 -0.906,-11.694 -0.906,-18.588l-0.185,-30.634l8.432,0l0,62.453l-9.338,0Z" style="fill:#164895;fill-rule:nonzero;"/><path d="M322.625,238.497c-6.256,0 -10.063,1.178 -11.878,3.262c-1.722,1.994 -2.356,3.625 -2.356,6.619c0,4.985 2.54,7.885 7.162,7.885c3.809,0 7.435,-2.36 9.519,-5.985l0.272,-11.603c-1.269,-0.087 -1.994,-0.178 -2.719,-0.178Zm10.244,24.381c-2.813,-1.087 -4.988,-3.353 -6.075,-6.528c-1.178,1.453 -4.988,5.984 -12.872,5.984c-9.066,0 -14.688,-4.621 -14.688,-13.325c0,-10.512 8.432,-16.134 23.119,-16.134c1.088,0 1.994,0 3.172,0.091l0,-2.991c0,-5.35 -0.725,-8.975 -7.072,-8.975c-4.803,0 -10.244,2.356 -13.959,5.166l-3.806,-5.982c4.44,-2.537 10.243,-5.984 19.034,-5.984c6.619,0 11.422,2.45 13.147,7.256c0.722,1.991 0.906,3.532 0.906,7.975c0,3.263 -0.366,10.244 -0.366,16.86c0,6.256 0.182,8.793 3.719,10.965l-4.259,5.622Z" style="fill:#164895;fill-rule:nonzero;"/><path d="M366.122,221.456l-8.972,0l0,27.372c0,5.622 1.359,7.344 5.891,7.344c1.54,0 2.809,-0.272 4.262,-0.906l0.994,5.072c-2.538,1.271 -5.256,1.906 -8.247,1.906c-2.991,0 -6.256,-0.906 -7.706,-2.266c-1.903,-1.725 -3.353,-2.628 -3.353,-9.244l0,-29.278l-5.441,0l0,-5.893l5.441,0c0,-3.535 0.09,-8.157 0.543,-11.604l8.613,-1.993c-0.363,3.262 -0.816,8.972 -0.816,13.597l11.057,0l-2.266,5.893Z" style="fill:#164895;fill-rule:nonzero;"/><path d="M377.9,260.975l0,-45.141l8.609,-1.359l0,46.5l-8.609,0Zm4.259,-53.391c-3.262,0 -5.8,-2.718 -5.8,-5.981c0,-3.353 2.625,-6.072 5.891,-6.072c3.262,0 5.981,2.628 5.981,6.072c0,3.263 -2.719,5.981 -6.072,5.981Z" style="fill:#164895;fill-rule:nonzero;"/><path d="M418.231,220.728c-7.253,0 -10.244,5.169 -10.244,16.591c0,13.865 3.535,18.487 10.607,18.487c6.343,0 10.24,-4.893 10.24,-16.765c0,-14.053 -4.078,-18.313 -10.603,-18.313Zm0.181,41.516c-12.146,0 -19.671,-9.247 -19.671,-24.019c0,-14.684 7.525,-23.931 19.49,-23.931c13.416,0 19.941,10.694 19.941,24.381c0,14.416 -7.706,23.569 -19.76,23.569Z" style="fill:#164895;fill-rule:nonzero;"/><path d="M475.959,260.975l0,-30.637c0,-4.079 -0.362,-5.529 -1.45,-6.982c-0.906,-1.178 -2.537,-1.812 -4.622,-1.812c-3.265,0 -8.159,2.537 -11.24,5.8l0,33.631l-8.25,0l0,-33.809c0,-5.438 -0.453,-7.522 -1.722,-10.788l7.888,-2.178c1.087,2.178 1.54,4.172 1.54,6.984c2.628,-2.178 3.988,-3.356 5.891,-4.443c2.628,-1.541 5.622,-2.266 8.431,-2.266c4.803,0 9.066,2.538 10.697,6.434c0.725,1.632 1.087,3.629 1.087,5.713l0,34.353l-8.25,0Z" style="fill:#164895;fill-rule:nonzero;"/><path d="M518.916,238.497c-6.257,0 -10.063,1.178 -11.875,3.262c-1.722,1.994 -2.36,3.625 -2.36,6.619c0,4.985 2.541,7.885 7.163,7.885c3.806,0 7.434,-2.36 9.518,-5.985l0.272,-11.603c-1.268,-0.087 -1.993,-0.178 -2.718,-0.178Zm10.243,24.381c-2.812,-1.087 -4.987,-3.353 -6.075,-6.528c-1.178,1.453 -4.987,5.984 -12.871,5.984c-9.063,0 -14.685,-4.621 -14.685,-13.325c0,-10.512 8.431,-16.134 23.116,-16.134c1.087,0 1.994,0 3.172,0.091l0,-2.991c0,-5.35 -0.725,-8.975 -7.072,-8.975c-4.803,0 -10.241,2.356 -13.96,5.166l-3.806,-5.982c4.444,-2.537 10.244,-5.984 19.034,-5.984c6.619,0 11.422,2.45 13.147,7.256c0.722,1.991 0.907,3.532 0.907,7.975c0,3.263 -0.366,10.244 -0.366,16.86c0,6.256 0.181,8.793 3.719,10.965l-4.26,5.622Z" style="fill:#164895;fill-rule:nonzero;"/><path d="M554.072,261.881c-3.263,0 -5.347,-0.997 -7.072,-3.443c-1.359,-1.904 -1.719,-3.444 -1.719,-7.888l0,-41.153c0,-6.434 -0.275,-9.519 -1,-13.05l8.703,-1.816c0.816,2.991 0.816,7.344 0.816,12.963l0,40.884c0,4.803 0.272,5.891 1.178,6.706c0.544,0.632 1.813,0.907 2.813,0.632l1.446,5.168c-1.721,0.725 -3.171,0.997 -5.165,0.997Z" style="fill:#164895;fill-rule:nonzero;"/><path d="M603.825,262.153c-7.159,0 -14.05,-1.815 -20.122,-5.531l3.444,-6.706c5.437,3.353 10.606,5.168 16.862,5.168c8.157,0 13.504,-4.171 13.504,-10.878c0,-5.075 -3.354,-8.612 -10.335,-10.606l-6.525,-1.903c-9.425,-2.719 -14.775,-7.25 -14.775,-16.134c0,-10.788 8.341,-18.132 20.666,-18.132c6.89,0 13.6,1.997 19.128,5.894l-3.9,6.166c-5.8,-3.538 -9.697,-4.897 -14.866,-4.897c-6.978,0 -11.331,3.625 -11.331,9.428c0,4.441 2.541,6.978 9.247,8.975l7.344,2.175c8.34,2.444 15.228,7.887 15.228,17.584c0,8.7 -7.16,19.397 -23.569,19.397Z" style="fill:#164895;fill-rule:nonzero;"/><path d="M655.847,261.881c-6.528,0 -11.425,-2.265 -14.597,-6.797c-2.991,-4.262 -4.35,-9.518 -4.35,-16.409c0,-10.241 3.263,-16.134 7.616,-20.031c3.353,-2.991 7.34,-4.622 11.781,-4.622c4.894,0 8.884,1.631 12.328,4.803l-4.35,5.713c-2.991,-2.632 -5.075,-3.538 -7.978,-3.538c-3.444,0 -6.435,1.813 -7.978,4.897c-1.541,3.081 -2.175,7.612 -2.175,13.869c0,6.343 1.268,10.512 3.628,13.053c1.631,1.722 3.897,2.719 6.525,2.719c3.353,0 6.709,-1.635 9.428,-4.716l4.078,5.169c-4.35,4.259 -8.156,5.89 -13.956,5.89Z" style="fill:#164895;fill-rule:nonzero;"/><path d="M679.766,260.975l0,-45.141l8.612,-1.359l0,46.5l-8.612,0Zm4.259,-53.391c-3.266,0 -5.8,-2.718 -5.8,-5.981c0,-3.353 2.628,-6.072 5.891,-6.072c3.262,0 5.981,2.628 5.981,6.072c0,3.263 -2.719,5.981 -6.072,5.981Z" style="fill:#164895;fill-rule:nonzero;"/><path d="M726.531,223.631c-1.45,-1.815 -3.625,-3.175 -6.525,-3.175c-6.347,0 -9.518,5.169 -9.518,13.416l18.853,0c0,-4.35 -0.997,-7.975 -2.81,-10.241Zm-16.134,16.407l0,1.087c0,3.897 0.54,6.891 1.903,9.066c2.356,3.625 6.072,5.347 10.425,5.347c4.259,0 7.884,-1.45 11.147,-4.354l3.175,4.988c-4.444,3.897 -9.791,5.8 -15.685,5.8c-12.599,0 -20.303,-9.153 -20.303,-24.019c0,-7.887 1.541,-12.965 5.441,-17.587c3.625,-4.26 8.066,-6.253 13.684,-6.253c5.075,0 9.157,1.628 12.332,4.893c3.987,4.078 5.437,9.157 5.528,19.582l0,1.45l-27.647,0Z" style="fill:#164895;fill-rule:nonzero;"/><path d="M775.378,260.975l0,-30.637c0,-4.079 -0.366,-5.529 -1.45,-6.982c-0.906,-1.178 -2.541,-1.812 -4.625,-1.812c-3.262,0 -8.156,2.537 -11.237,5.8l0,33.631l-8.25,0l0,-33.809c0,-5.438 -0.457,-7.522 -1.725,-10.788l7.89,-2.178c1.085,2.178 1.541,4.172 1.541,6.984c2.628,-2.178 3.984,-3.356 5.887,-4.443c2.632,-1.541 5.622,-2.266 8.435,-2.266c4.803,0 9.062,2.538 10.697,6.434c0.721,1.632 1.084,3.629 1.084,5.713l0,34.353l-8.247,0Z" style="fill:#164895;fill-rule:nonzero;"/><path d="M815.25,261.881c-6.531,0 -11.422,-2.265 -14.597,-6.797c-2.991,-4.262 -4.347,-9.518 -4.347,-16.409c0,-10.241 3.263,-16.134 7.613,-20.031c3.356,-2.991 7.344,-4.622 11.784,-4.622c4.894,0 8.885,1.631 12.328,4.803l-4.35,5.713c-2.99,-2.632 -5.075,-3.538 -7.978,-3.538c-3.447,0 -6.437,1.813 -7.981,4.897c-1.538,3.081 -2.172,7.612 -2.172,13.869c0,6.343 1.269,10.512 3.628,13.053c1.628,1.722 3.894,2.719 6.525,2.719c3.35,0 6.706,-1.635 9.425,-4.716l4.081,5.169c-4.35,4.259 -8.156,5.89 -13.959,5.89Z" style="fill:#164895;fill-rule:nonzero;"/><path d="M861.012,223.631c-1.45,-1.815 -3.624,-3.175 -6.524,-3.175c-6.347,0 -9.519,5.169 -9.519,13.416l18.853,0c0,-4.35 -0.997,-7.975 -2.81,-10.241Zm-16.134,16.407l0,1.087c0,3.897 0.544,6.891 1.903,9.066c2.356,3.625 6.075,5.347 10.425,5.347c4.26,0 7.888,-1.45 11.147,-4.354l3.175,4.988c-4.444,3.897 -9.79,5.8 -15.681,5.8c-12.603,0 -20.306,-9.153 -20.306,-24.019c0,-7.887 1.543,-12.965 5.44,-17.587c3.625,-4.26 8.066,-6.253 13.688,-6.253c5.075,0 9.153,1.628 12.328,4.893c3.987,4.078 5.437,9.157 5.528,19.582l0,1.45l-27.647,0Z" style="fill:#164895;fill-rule:nonzero;"/><path d="M936.05,205.681l-22.572,0l0,18.944l18.491,0l0,7.072l-18.491,0l0,29.278l-8.794,0l0,-62.453l32.544,0l-1.178,7.159Z" style="fill:#164895;fill-rule:nonzero;"/><path d="M959.425,220.728c-7.25,0 -10.241,5.169 -10.241,16.591c0,13.865 3.535,18.487 10.603,18.487c6.347,0 10.247,-4.893 10.247,-16.765c0,-14.053 -4.081,-18.313 -10.609,-18.313Zm0.184,41.516c-12.147,0 -19.672,-9.247 -19.672,-24.019c0,-14.684 7.525,-23.931 19.488,-23.931c13.416,0 19.944,10.694 19.944,24.381c0,14.416 -7.706,23.569 -19.76,23.569Z" style="fill:#164895;fill-rule:nonzero;"/><path d="M1022.41,262.516c-2.265,-1.722 -3.443,-3.447 -4.259,-6.525c-3.625,4.44 -8.069,6.525 -13.687,6.525c-5.8,0 -10.335,-2.628 -12.238,-6.8c-0.819,-1.813 -1.09,-4.347 -1.09,-7.613l0,-32.269l8.249,-1.634l0,31.638c0,4.625 0.457,6.437 2.085,7.978c1.181,1.087 3.265,1.99 5.259,1.99c4.078,0 8.431,-3.168 10.331,-7.156l0,-32.637l8.251,-1.629l0,34.172c0,4.625 0.996,7.888 2.809,9.428l-5.71,4.532Z" style="fill:#164895;fill-rule:nonzero;"/><path d="M1065.37,260.975l0,-30.637c0,-4.079 -0.363,-5.529 -1.447,-6.982c-0.906,-1.178 -2.541,-1.812 -4.625,-1.812c-3.263,0 -8.156,2.537 -11.241,5.8l0,33.631l-8.247,0l0,-33.809c0,-5.438 -0.456,-7.522 -1.725,-10.788l7.888,-2.178c1.087,2.178 1.544,4.172 1.544,6.984c2.625,-2.178 3.984,-3.356 5.887,-4.443c2.631,-1.541 5.622,-2.266 8.434,-2.266c4.804,0 9.063,2.538 10.694,6.434c0.725,1.632 1.088,3.629 1.088,5.713l0,34.353l-8.25,0Z" style="fill:#164895;fill-rule:nonzero;"/><path d="M1115.48,225.716c-2.356,-2.813 -5.347,-4.26 -9.609,-4.26c-3.444,0 -6.163,1.719 -7.888,4.622c-1.721,2.991 -2.356,6.616 -2.356,12.51c0,8.793 1.091,11.24 3.538,13.775c1.537,1.634 3.625,2.359 6.706,2.359c4.803,0 8.066,-2.538 9.609,-5.256l0,-23.75Zm1.719,35.259c-0.45,-1.359 -0.544,-1.994 -0.812,-4.262c-3.172,3.356 -6.891,4.987 -11.697,4.987c-11.603,0 -18.397,-8.703 -18.397,-23.025c0,-9.787 3.353,-17.312 9.516,-21.3c2.809,-1.812 5.618,-2.628 8.881,-2.628c4.353,0 7.978,1.541 11.059,5.256c0,-1.265 -0.178,-4.897 -0.178,-7.975l0,-17.678l8.338,1.359l0,50.038c0,7.344 0.274,12.416 1.268,15.228l-7.978,0Z" style="fill:#164895;fill-rule:nonzero;"/><path d="M1159.08,238.497c-6.256,0 -10.062,1.178 -11.878,3.262c-1.722,1.994 -2.356,3.625 -2.356,6.619c0,4.985 2.538,7.885 7.163,7.885c3.806,0 7.431,-2.36 9.518,-5.985l0.272,-11.603c-1.269,-0.087 -1.997,-0.178 -2.719,-0.178Zm10.241,24.381c-2.809,-1.087 -4.987,-3.353 -6.072,-6.528c-1.178,1.453 -4.987,5.984 -12.872,5.984c-9.065,0 -14.687,-4.621 -14.687,-13.325c0,-10.512 8.434,-16.134 23.115,-16.134c1.088,0 1.994,0 3.172,0.091l0,-2.991c0,-5.35 -0.725,-8.975 -7.069,-8.975c-4.803,0 -10.243,2.356 -13.959,5.166l-3.809,-5.982c4.444,-2.537 10.244,-5.984 19.037,-5.984c6.616,0 11.422,2.45 13.144,7.256c0.725,1.991 0.906,3.532 0.906,7.975c0,3.263 -0.362,10.244 -0.362,16.86c0,6.256 0.181,8.793 3.715,10.965l-4.259,5.622Z" style="fill:#164895;fill-rule:nonzero;"/><path d="M1202.58,221.456l-8.975,0l0,27.372c0,5.622 1.36,7.344 5.891,7.344c1.541,0 2.812,-0.272 4.263,-0.906l0.996,5.072c-2.54,1.271 -5.259,1.906 -8.25,1.906c-2.993,0 -6.256,-0.906 -7.706,-2.266c-1.903,-1.725 -3.353,-2.628 -3.353,-9.244l0,-29.278l-5.437,0l0,-5.893l5.437,0c0,-3.535 0.088,-8.157 0.544,-11.604l8.612,-1.993c-0.362,3.262 -0.819,8.972 -0.819,13.597l11.06,0l-2.263,5.893Z" style="fill:#164895;fill-rule:nonzero;"/><path d="M1214.36,260.975l0,-45.141l8.613,-1.359l0,46.5l-8.613,0Zm4.26,-53.391c-3.263,0 -5.8,-2.718 -5.8,-5.981c0,-3.353 2.628,-6.072 5.894,-6.072c3.262,0 5.981,2.628 5.981,6.072c0,3.263 -2.719,5.981 -6.075,5.981Z" style="fill:#164895;fill-rule:nonzero;"/><path d="M1254.69,220.728c-7.251,0 -10.241,5.169 -10.241,16.591c0,13.865 3.534,18.487 10.606,18.487c6.344,0 10.244,-4.893 10.244,-16.765c0,-14.053 -4.081,-18.313 -10.61,-18.313Zm0.185,41.516c-12.147,0 -19.672,-9.247 -19.672,-24.019c0,-14.684 7.525,-23.931 19.487,-23.931c13.416,0 19.944,10.694 19.944,24.381c0,14.416 -7.706,23.569 -19.759,23.569Z" style="fill:#164895;fill-rule:nonzero;"/><path d="M1312.42,260.975l0,-30.637c0,-4.079 -0.363,-5.529 -1.45,-6.982c-0.906,-1.178 -2.538,-1.812 -4.622,-1.812c-3.263,0 -8.159,2.537 -11.241,5.8l0,33.631l-8.25,0l0,-33.809c0,-5.438 -0.453,-7.522 -1.722,-10.788l7.888,-2.178c1.087,2.178 1.541,4.172 1.541,6.984c2.628,-2.178 3.987,-3.356 5.89,-4.443c2.631,-1.541 5.622,-2.266 8.431,-2.266c4.804,0 9.066,2.538 10.697,6.434c0.722,1.632 1.088,3.629 1.088,5.713l0,34.353l-8.25,0Z" style="fill:#164895;fill-rule:nonzero;"/></svg>